<svg width="12" height="13" viewBox="0 0 12 13" fill="none" xmlns="http://www.w3.org/2000/svg">
<path d="M8.1235 0.638625C8.6385 1.23121 8.915 1.89583 8.915 2.97321C8.915 4.86904 7.687 6.56825 5.9 7.40837L5.4535 6.66196C7.121 5.68479 7.447 4.41675 7.5775 3.61725C7.309 3.76783 6.9575 3.82037 6.6125 3.78571C5.7105 3.69525 4.9995 2.89304 4.9995 1.89583C4.9995 1.39303 5.18387 0.910814 5.51206 0.555277C5.84025 0.199739 6.28537 0 6.7495 0C7.286 0 7.7995 0.265417 8.1235 0.638625ZM3.1235 0.638625C3.6385 1.23121 3.915 1.89583 3.915 2.97321C3.915 4.86904 2.687 6.56825 0.9 7.40837L0.4535 6.66196C2.121 5.68479 2.447 4.41675 2.577 3.61725C2.3085 3.76783 1.957 3.82037 1.6125 3.78571C0.7105 3.69579 0 2.89358 0 1.89583C0 1.39303 0.184374 0.910814 0.512563 0.555277C0.840752 0.199739 1.28587 0 1.75 0C2.2865 0 2.8 0.265417 3.124 0.638625" fill="#433B33"/>
</svg>
