<svg width="13" height="13" viewBox="0 0 13 13" fill="none" xmlns="http://www.w3.org/2000/svg">
<path d="M2.48246 9.38205C1.92454 8.78947 1.625 8.12485 1.625 7.04747C1.625 5.15164 2.95587 3.45243 4.89125 2.6123L5.37496 3.35872C3.5685 4.33589 3.21533 5.60393 3.0745 6.40343C3.36538 6.25285 3.74617 6.2003 4.11938 6.23497C5.09654 6.32543 5.86679 7.12764 5.86679 8.12485C5.86679 8.62765 5.66705 9.10987 5.31152 9.4654C4.95598 9.82094 4.47376 10.0207 3.97096 10.0207C3.6929 10.0182 3.4181 9.96054 3.16255 9.8509C2.90701 9.74126 2.67583 9.58188 2.48246 9.38205ZM7.89913 9.38205C7.34121 8.78947 7.04167 8.12485 7.04167 7.04747C7.04167 5.15164 8.37254 3.45243 10.3079 2.6123L10.7916 3.35872C8.98517 4.33589 8.632 5.60393 8.49117 6.40343C8.78204 6.25285 9.16283 6.2003 9.53604 6.23497C10.5132 6.32543 11.2835 7.12764 11.2835 8.12485C11.2835 8.62765 11.0837 9.10987 10.7282 9.4654C10.3726 9.82094 9.89043 10.0207 9.38762 10.0207C9.10956 10.0182 8.83477 9.96054 8.57922 9.8509C8.32368 9.74126 8.09249 9.58188 7.89913 9.38205Z" fill="#433B33"/>
</svg>
