<svg width="38" height="65" viewBox="0 0 38 65" fill="none" xmlns="http://www.w3.org/2000/svg">
<path d="M10.7742 18.5556H7.48387C4.45521 18.5556 2 21.0429 2 24.1111V57.4444C2 60.5127 4.45521 63 7.48387 63H30.5161C33.5448 63 36 60.5127 36 57.4444V24.1111C36 21.0429 33.5448 18.5556 30.5161 18.5556H28.3226M10.7742 18.5556V13H28.3226V18.5556M10.7742 18.5556H28.3226M18.9995 48.5556C6.93499 48.5556 13.5161 31.8889 18.9995 28.5556C24.4839 32.4444 31.064 48.5556 18.9995 48.5556ZM18.9995 48.5556V40.2222M18.9995 48.5556V54.1111M5 2H34V13H5V2ZM15 2V13H23V2H15ZM10 2H30V13H10V2Z" stroke="#1D4739" stroke-width="3"/>
</svg>
