<svg width="46" height="58" viewBox="0 0 46 58" fill="none" xmlns="http://www.w3.org/2000/svg">
<path d="M12.7506 54.7744H33.1401L36.8431 38.3366H9.04475L12.7506 54.7744ZM10.5052 58L6.08062 38.3366H39.8073L35.3855 58H10.5052ZM2.875 35.111H43.125V27.4178H2.875V35.111ZM22.9425 16.4378C22.9425 12.0552 24.427 8.32427 27.3959 5.24487C30.3629 2.16332 33.8186 0.415031 37.7631 0C37.3568 4.05354 35.9174 7.5856 33.4449 10.5962C30.9724 13.6068 27.9517 15.5099 24.3829 16.3055V24.1922H46V38.3366H0V24.1922H21.505V16.3023C17.94 15.5067 14.9203 13.6143 12.4459 10.6252C9.97338 7.63614 8.53396 4.0944 8.12763 0C12.0338 0.415031 15.48 2.173 18.4661 5.2739C21.4523 8.3748 22.9454 12.0961 22.9454 16.4378" fill="#1D4739"/>
</svg>
