<svg width="42" height="72" viewBox="0 0 42 72" fill="none" xmlns="http://www.w3.org/2000/svg">
<path d="M32.0974 28.9438C41.3171 31.9384 39.7805 58.6668 38.0244 70H7.73124C7.73124 30.8683 11.6825 29.5125 16.2923 28.9438M32.0974 28.9438C24.1949 28.9438 22.2193 28.9438 16.2923 28.9438M32.0974 28.9438V18.6791H28.1462M16.2923 28.9438V18.6791M16.2923 18.6791H28.1462M16.2923 18.6791C9.48737 22.9558 -2.54207 29.8413 3.77997 23.1696C10.102 16.498 9.04834 10.5534 7.73124 8.41504M16.2923 18.6791C13.1313 13.5471 13.2191 5.42135 13.6582 2M28.1462 18.6791C28.3657 16.1131 31.0438 11.1094 40 11.6226C40 7.00373 34.7316 3.28301 32.0974 2H13.6582M7.73124 8.41504H2.46288V2H8.06052M7.73124 8.41504L8.06052 2M13.6582 2H8.06052" stroke="#1D4739" stroke-width="3"/>
</svg>
