<svg width="55" height="53" viewBox="0 0 55 53" fill="none" xmlns="http://www.w3.org/2000/svg">
<mask id="path-1-inside-1_7_156" fill="white">
<path fill-rule="evenodd" clip-rule="evenodd" d="M27.5 0C28.0088 0 28.4968 0.194788 28.8567 0.541512C29.2165 0.888236 29.4186 1.3585 29.4186 1.84884V6.77907C29.4186 7.26941 29.2165 7.73967 28.8567 8.0864C28.4968 8.43312 28.0088 8.62791 27.5 8.62791C26.9912 8.62791 26.5032 8.43312 26.1433 8.0864C25.7835 7.73967 25.5814 7.26941 25.5814 6.77907V1.84884C25.5814 1.3585 25.7835 0.888236 26.1433 0.541512C26.5032 0.194788 26.9912 0 27.5 0ZM6.18814 6.07898C6.35824 5.89972 6.56334 5.75452 6.7917 5.65167C7.02006 5.54883 7.26722 5.49036 7.51904 5.4796C7.77086 5.46884 8.02242 5.506 8.25933 5.58897C8.49624 5.67193 8.71387 5.79907 8.89977 5.96312L14.5814 10.9698C14.7712 11.1326 14.9256 11.3301 15.0356 11.5508C15.1456 11.7716 15.209 12.0112 15.2221 12.2558C15.2352 12.5003 15.1977 12.745 15.1119 12.9754C15.026 13.2059 14.8935 13.4177 14.7221 13.5984C14.5506 13.7792 14.3436 13.9253 14.113 14.0283C13.8825 14.1313 13.633 14.1892 13.3791 14.1985C13.1251 14.2078 12.8718 14.1684 12.6338 14.0826C12.3958 13.9968 12.1778 13.8663 11.9926 13.6987L6.30837 8.692C6.12235 8.52808 5.97167 8.33045 5.86494 8.11039C5.75822 7.89033 5.69754 7.65216 5.68637 7.4095C5.67521 7.16683 5.71377 6.92442 5.79987 6.69612C5.88597 6.46783 6.0179 6.25812 6.18814 6.07898ZM48.8119 6.07898C48.9821 6.25812 49.114 6.46783 49.2001 6.69612C49.2862 6.92442 49.3248 7.16683 49.3136 7.4095C49.3025 7.65216 49.2418 7.89033 49.1351 8.11039C49.0283 8.33045 48.8777 8.52808 48.6916 8.692L43.0074 13.6987C42.6306 14.0217 42.137 14.1888 41.6333 14.1638C41.1295 14.1388 40.6563 13.9236 40.316 13.5649C39.9757 13.2062 39.7957 12.7327 39.8149 12.247C39.8341 11.7614 40.051 11.3025 40.4186 10.9698L46.1028 5.96312C46.2887 5.79907 46.5063 5.67193 46.7432 5.58897C46.9801 5.506 47.2317 5.46884 47.4835 5.4796C47.7353 5.49036 47.9825 5.54883 48.2109 5.65167C48.4392 5.75452 48.6443 5.89972 48.8144 6.07898M27.5 16.0233C26.0723 16.0233 24.6585 16.2942 23.3394 16.8208C22.0204 17.3473 20.8218 18.119 19.8123 19.0918C18.8027 20.0647 18.0019 21.2196 17.4555 22.4907C16.9091 23.7618 16.6279 25.1242 16.6279 26.5C16.6279 27.8758 16.9091 29.2382 17.4555 30.5093C18.0019 31.7804 18.8027 32.9353 19.8123 33.9082C20.8218 34.881 22.0204 35.6527 23.3394 36.1792C24.6585 36.7058 26.0723 36.9767 27.5 36.9767C30.3835 36.9767 33.1488 35.8729 35.1877 33.9082C37.2266 31.9434 38.3721 29.2786 38.3721 26.5C38.3721 23.7214 37.2266 21.0566 35.1877 19.0918C33.1488 17.1271 30.3835 16.0233 27.5 16.0233ZM12.7907 26.5C12.7907 22.7407 14.3404 19.1354 17.099 16.4772C19.8575 13.819 23.5989 12.3256 27.5 12.3256C31.4011 12.3256 35.1425 13.819 37.901 16.4772C40.6596 19.1354 42.2093 22.7407 42.2093 26.5C42.2093 30.2593 40.6596 33.8646 37.901 36.5228C35.1425 39.181 31.4011 40.6744 27.5 40.6744C23.5989 40.6744 19.8575 39.181 17.099 36.5228C14.3404 33.8646 12.7907 30.2593 12.7907 26.5ZM0 26.5C0 26.0097 0.202138 25.5394 0.561946 25.1927C0.921755 24.846 1.40976 24.6512 1.9186 24.6512H7.03488C7.54373 24.6512 8.03173 24.846 8.39154 25.1927C8.75135 25.5394 8.95349 26.0097 8.95349 26.5C8.95349 26.9903 8.75135 27.4606 8.39154 27.8073C8.03173 28.154 7.54373 28.3488 7.03488 28.3488H1.9186C1.40976 28.3488 0.921755 28.154 0.561946 27.8073C0.202138 27.4606 0 26.9903 0 26.5ZM46.0465 26.5C46.0465 26.0097 46.2486 25.5394 46.6085 25.1927C46.9683 24.846 47.4563 24.6512 47.9651 24.6512H53.0814C53.5902 24.6512 54.0782 24.846 54.4381 25.1927C54.7979 25.5394 55 26.0097 55 26.5C55 26.9903 54.7979 27.4606 54.4381 27.8073C54.0782 28.154 53.5902 28.3488 53.0814 28.3488H47.9651C47.4563 28.3488 46.9683 28.154 46.6085 27.8073C46.2486 27.4606 46.0465 26.9903 46.0465 26.5ZM40.3572 38.8872C40.7169 38.541 41.2046 38.3465 41.713 38.3465C42.2215 38.3465 42.7091 38.541 43.0688 38.8872L48.753 44.3672C49.0919 44.7176 49.2764 45.1812 49.2677 45.6602C49.2589 46.1391 49.0575 46.5961 48.706 46.9349C48.3545 47.2736 47.8802 47.4677 47.3832 47.4761C46.8861 47.4846 46.4051 47.3068 46.0414 46.9802L40.3572 41.5027C39.9979 41.156 39.7961 40.6861 39.7961 40.1962C39.7961 39.7062 39.9979 39.2339 40.3572 38.8872ZM14.6453 38.8897C14.8236 39.0614 14.9651 39.2652 15.0616 39.4896C15.1581 39.714 15.2077 39.9545 15.2077 40.1974C15.2077 40.4403 15.1581 40.6808 15.0616 40.9052C14.9651 41.1296 14.8236 41.3335 14.6453 41.5052L8.9586 46.9827C8.5949 47.3092 8.11385 47.487 7.6168 47.4786C7.11975 47.4701 6.64551 47.2761 6.29399 46.9373C5.94247 46.5986 5.74111 46.1416 5.73234 45.6626C5.72357 45.1837 5.90807 44.7201 6.24698 44.3696L11.9312 38.8897C12.2909 38.5434 12.7785 38.349 13.287 38.349C13.7954 38.349 14.2856 38.5434 14.6453 38.8897ZM27.5 44.3721C28.0088 44.3721 28.4968 44.5669 28.8567 44.9136C29.2165 45.2603 29.4186 45.7306 29.4186 46.2209V51.1512C29.4186 51.6415 29.2165 52.1118 28.8567 52.4585C28.4968 52.8052 28.0088 53 27.5 53C26.9912 53 26.5032 52.8052 26.1433 52.4585C25.7835 52.1118 25.5814 51.6415 25.5814 51.1512V46.2209C25.5814 45.7306 25.7835 45.2603 26.1433 44.9136C26.5032 44.5669 26.9912 44.3721 27.5 44.3721Z"/>
</mask>
<path fill-rule="evenodd" clip-rule="evenodd" d="M27.5 0C28.0088 0 28.4968 0.194788 28.8567 0.541512C29.2165 0.888236 29.4186 1.3585 29.4186 1.84884V6.77907C29.4186 7.26941 29.2165 7.73967 28.8567 8.0864C28.4968 8.43312 28.0088 8.62791 27.5 8.62791C26.9912 8.62791 26.5032 8.43312 26.1433 8.0864C25.7835 7.73967 25.5814 7.26941 25.5814 6.77907V1.84884C25.5814 1.3585 25.7835 0.888236 26.1433 0.541512C26.5032 0.194788 26.9912 0 27.5 0ZM6.18814 6.07898C6.35824 5.89972 6.56334 5.75452 6.7917 5.65167C7.02006 5.54883 7.26722 5.49036 7.51904 5.4796C7.77086 5.46884 8.02242 5.506 8.25933 5.58897C8.49624 5.67193 8.71387 5.79907 8.89977 5.96312L14.5814 10.9698C14.7712 11.1326 14.9256 11.3301 15.0356 11.5508C15.1456 11.7716 15.209 12.0112 15.2221 12.2558C15.2352 12.5003 15.1977 12.745 15.1119 12.9754C15.026 13.2059 14.8935 13.4177 14.7221 13.5984C14.5506 13.7792 14.3436 13.9253 14.113 14.0283C13.8825 14.1313 13.633 14.1892 13.3791 14.1985C13.1251 14.2078 12.8718 14.1684 12.6338 14.0826C12.3958 13.9968 12.1778 13.8663 11.9926 13.6987L6.30837 8.692C6.12235 8.52808 5.97167 8.33045 5.86494 8.11039C5.75822 7.89033 5.69754 7.65216 5.68637 7.4095C5.67521 7.16683 5.71377 6.92442 5.79987 6.69612C5.88597 6.46783 6.0179 6.25812 6.18814 6.07898ZM48.8119 6.07898C48.9821 6.25812 49.114 6.46783 49.2001 6.69612C49.2862 6.92442 49.3248 7.16683 49.3136 7.4095C49.3025 7.65216 49.2418 7.89033 49.1351 8.11039C49.0283 8.33045 48.8777 8.52808 48.6916 8.692L43.0074 13.6987C42.6306 14.0217 42.137 14.1888 41.6333 14.1638C41.1295 14.1388 40.6563 13.9236 40.316 13.5649C39.9757 13.2062 39.7957 12.7327 39.8149 12.247C39.8341 11.7614 40.051 11.3025 40.4186 10.9698L46.1028 5.96312C46.2887 5.79907 46.5063 5.67193 46.7432 5.58897C46.9801 5.506 47.2317 5.46884 47.4835 5.4796C47.7353 5.49036 47.9825 5.54883 48.2109 5.65167C48.4392 5.75452 48.6443 5.89972 48.8144 6.07898M27.5 16.0233C26.0723 16.0233 24.6585 16.2942 23.3394 16.8208C22.0204 17.3473 20.8218 18.119 19.8123 19.0918C18.8027 20.0647 18.0019 21.2196 17.4555 22.4907C16.9091 23.7618 16.6279 25.1242 16.6279 26.5C16.6279 27.8758 16.9091 29.2382 17.4555 30.5093C18.0019 31.7804 18.8027 32.9353 19.8123 33.9082C20.8218 34.881 22.0204 35.6527 23.3394 36.1792C24.6585 36.7058 26.0723 36.9767 27.5 36.9767C30.3835 36.9767 33.1488 35.8729 35.1877 33.9082C37.2266 31.9434 38.3721 29.2786 38.3721 26.5C38.3721 23.7214 37.2266 21.0566 35.1877 19.0918C33.1488 17.1271 30.3835 16.0233 27.5 16.0233ZM12.7907 26.5C12.7907 22.7407 14.3404 19.1354 17.099 16.4772C19.8575 13.819 23.5989 12.3256 27.5 12.3256C31.4011 12.3256 35.1425 13.819 37.901 16.4772C40.6596 19.1354 42.2093 22.7407 42.2093 26.5C42.2093 30.2593 40.6596 33.8646 37.901 36.5228C35.1425 39.181 31.4011 40.6744 27.5 40.6744C23.5989 40.6744 19.8575 39.181 17.099 36.5228C14.3404 33.8646 12.7907 30.2593 12.7907 26.5ZM0 26.5C0 26.0097 0.202138 25.5394 0.561946 25.1927C0.921755 24.846 1.40976 24.6512 1.9186 24.6512H7.03488C7.54373 24.6512 8.03173 24.846 8.39154 25.1927C8.75135 25.5394 8.95349 26.0097 8.95349 26.5C8.95349 26.9903 8.75135 27.4606 8.39154 27.8073C8.03173 28.154 7.54373 28.3488 7.03488 28.3488H1.9186C1.40976 28.3488 0.921755 28.154 0.561946 27.8073C0.202138 27.4606 0 26.9903 0 26.5ZM46.0465 26.5C46.0465 26.0097 46.2486 25.5394 46.6085 25.1927C46.9683 24.846 47.4563 24.6512 47.9651 24.6512H53.0814C53.5902 24.6512 54.0782 24.846 54.4381 25.1927C54.7979 25.5394 55 26.0097 55 26.5C55 26.9903 54.7979 27.4606 54.4381 27.8073C54.0782 28.154 53.5902 28.3488 53.0814 28.3488H47.9651C47.4563 28.3488 46.9683 28.154 46.6085 27.8073C46.2486 27.4606 46.0465 26.9903 46.0465 26.5ZM40.3572 38.8872C40.7169 38.541 41.2046 38.3465 41.713 38.3465C42.2215 38.3465 42.7091 38.541 43.0688 38.8872L48.753 44.3672C49.0919 44.7176 49.2764 45.1812 49.2677 45.6602C49.2589 46.1391 49.0575 46.5961 48.706 46.9349C48.3545 47.2736 47.8802 47.4677 47.3832 47.4761C46.8861 47.4846 46.4051 47.3068 46.0414 46.9802L40.3572 41.5027C39.9979 41.156 39.7961 40.6861 39.7961 40.1962C39.7961 39.7062 39.9979 39.2339 40.3572 38.8872ZM14.6453 38.8897C14.8236 39.0614 14.9651 39.2652 15.0616 39.4896C15.1581 39.714 15.2077 39.9545 15.2077 40.1974C15.2077 40.4403 15.1581 40.6808 15.0616 40.9052C14.9651 41.1296 14.8236 41.3335 14.6453 41.5052L8.9586 46.9827C8.5949 47.3092 8.11385 47.487 7.6168 47.4786C7.11975 47.4701 6.64551 47.2761 6.29399 46.9373C5.94247 46.5986 5.74111 46.1416 5.73234 45.6626C5.72357 45.1837 5.90807 44.7201 6.24698 44.3696L11.9312 38.8897C12.2909 38.5434 12.7785 38.349 13.287 38.349C13.7954 38.349 14.2856 38.5434 14.6453 38.8897ZM27.5 44.3721C28.0088 44.3721 28.4968 44.5669 28.8567 44.9136C29.2165 45.2603 29.4186 45.7306 29.4186 46.2209V51.1512C29.4186 51.6415 29.2165 52.1118 28.8567 52.4585C28.4968 52.8052 28.0088 53 27.5 53C26.9912 53 26.5032 52.8052 26.1433 52.4585C25.7835 52.1118 25.5814 51.6415 25.5814 51.1512V46.2209C25.5814 45.7306 25.7835 45.2603 26.1433 44.9136C26.5032 44.5669 26.9912 44.3721 27.5 44.3721Z" fill="#1D4739"/>
<path d="M27.5 0L27.5 -3L27.5 0ZM27.5 8.62791L27.5 11.6279L27.5 8.62791ZM6.18814 6.07898L8.36281 8.14557L8.3643 8.144L6.18814 6.07898ZM8.89977 5.96312L6.91478 8.21253L6.91636 8.21392L8.89977 5.96312ZM14.5814 10.9698L12.598 13.2206L12.6132 13.234L12.6286 13.2472L14.5814 10.9698ZM11.9926 13.6987L14.0056 11.4743L13.9906 11.4608L13.9755 11.4474L11.9926 13.6987ZM6.30837 8.692L4.325 10.9428L4.32547 10.9432L6.30837 8.692ZM48.6916 8.692L50.6745 10.9432L50.675 10.9428L48.6916 8.692ZM43.0074 13.6987L44.9602 15.9761L44.9754 15.9631L44.9903 15.9499L43.0074 13.6987ZM40.4186 10.9698L38.4357 8.71852L38.4205 8.73189L38.4055 8.74546L40.4186 10.9698ZM46.1028 5.96312L48.0857 8.21436L48.0878 8.21252L46.1028 5.96312ZM27.5 16.0233L27.5 19.0233L27.5 16.0233ZM27.5 36.9767L27.5 33.9767L27.5 36.9767ZM38.3721 26.5L35.3721 26.5L38.3721 26.5ZM12.7907 26.5L9.7907 26.5L12.7907 26.5ZM27.5 12.3256L27.5 9.32558L27.5 12.3256ZM42.2093 26.5L45.2093 26.5L42.2093 26.5ZM27.5 40.6744L27.5 43.6744L27.5 40.6744ZM8.95349 26.5L11.9535 26.5L8.95349 26.5ZM40.3572 38.8872L38.2769 36.7257L38.2742 36.7283L40.3572 38.8872ZM43.0688 38.8872L45.151 36.7274L45.1492 36.7257L43.0688 38.8872ZM48.753 44.3672L50.9097 42.2818L50.8731 42.2439L50.8352 42.2074L48.753 44.3672ZM46.0414 46.9802L43.9597 49.1404L43.9978 49.1771L44.0371 49.2124L46.0414 46.9802ZM40.3572 41.5027L38.2742 43.6616L38.2755 43.6629L40.3572 41.5027ZM14.6453 38.8897L16.7263 36.7288L16.7257 36.7281L14.6453 38.8897ZM14.6453 41.5052L12.5644 39.3443L12.5642 39.3445L14.6453 41.5052ZM8.9586 46.9827L10.9629 49.2148L11.002 49.1798L11.0398 49.1434L8.9586 46.9827ZM6.24698 44.3696L4.16481 42.2099L4.12692 42.2464L4.09034 42.2842L6.24698 44.3696ZM11.9312 38.8897L9.85083 36.7281L9.849 36.7299L11.9312 38.8897ZM27.5 3C27.2483 3 26.9856 2.90469 26.775 2.70175L30.9383 -1.61872C30.0081 -2.51512 28.7694 -3 27.5 -3V3ZM26.775 2.70175C26.5606 2.49516 26.4186 2.19076 26.4186 1.84884H32.4186C32.4186 0.526231 31.8723 -0.718684 30.9383 -1.61872L26.775 2.70175ZM26.4186 1.84884V6.77907H32.4186V1.84884H26.4186ZM26.4186 6.77907C26.4186 6.43715 26.5606 6.13275 26.775 5.92616L30.9383 10.2466C31.8723 9.34659 32.4186 8.10168 32.4186 6.77907H26.4186ZM26.775 5.92616C26.9856 5.72321 27.2483 5.62791 27.5 5.62791L27.5 11.6279C28.7694 11.6279 30.0081 11.143 30.9383 10.2466L26.775 5.92616ZM27.5 5.62791C27.7517 5.62791 28.0144 5.72321 28.225 5.92616L24.0617 10.2466C24.9919 11.143 26.2306 11.6279 27.5 11.6279L27.5 5.62791ZM28.225 5.92616C28.4394 6.13275 28.5814 6.43715 28.5814 6.77907H22.5814C22.5814 8.10168 23.1277 9.34659 24.0617 10.2466L28.225 5.92616ZM28.5814 6.77907V1.84884H22.5814V6.77907H28.5814ZM28.5814 1.84884C28.5814 2.19076 28.4394 2.49516 28.225 2.70175L24.0617 -1.61872C23.1277 -0.718684 22.5814 0.526231 22.5814 1.84884H28.5814ZM28.225 2.70175C28.0144 2.90469 27.7517 3 27.5 3L27.5 -3C26.2306 -3 24.9919 -2.51512 24.0617 -1.61872L28.225 2.70175ZM8.3643 8.144C8.26249 8.25129 8.14564 8.33212 8.0236 8.38707L5.55979 2.91627C4.98104 3.17692 4.45399 3.54815 4.01198 4.01395L8.3643 8.144ZM8.0236 8.38707C7.90175 8.44195 7.77403 8.47144 7.6471 8.47686L7.39097 2.48233C6.7604 2.50927 6.13837 2.65571 5.55979 2.91627L8.0236 8.38707ZM7.6471 8.47686C7.52019 8.48228 7.3917 8.46376 7.2678 8.42037L9.25087 2.75756C8.65314 2.54824 8.02153 2.45539 7.39097 2.48233L7.6471 8.47686ZM7.2678 8.42037C7.14375 8.37693 7.02304 8.30805 6.91478 8.21252L10.8848 3.71371C10.4047 3.29009 9.84873 2.96693 9.25087 2.75756L7.2678 8.42037ZM6.91636 8.21392L12.598 13.2206L16.5648 8.71897L10.8832 3.71232L6.91636 8.21392ZM12.6286 13.2472C12.5183 13.1526 12.4219 13.032 12.3504 12.8886L17.7208 10.213C17.4294 9.62813 17.0242 9.11247 16.5342 8.69233L12.6286 13.2472ZM12.3504 12.8886C12.2788 12.7449 12.2354 12.5841 12.2264 12.4161L18.2178 12.0954C18.1826 11.4383 18.0124 10.7983 17.7208 10.213L12.3504 12.8886ZM12.2264 12.4161C12.2174 12.248 12.2434 12.0818 12.3005 11.9285L17.9233 14.0224C18.152 13.4081 18.253 12.7526 18.2178 12.0954L12.2264 12.4161ZM12.3005 11.9285C12.3575 11.7755 12.4428 11.6421 12.5456 11.5337L16.8985 15.6632C17.3443 15.1933 17.6946 14.6364 17.9233 14.0224L12.3005 11.9285ZM12.5456 11.5337C12.6483 11.4255 12.7662 11.3443 12.8893 11.2893L15.3368 16.7674C15.921 16.5064 16.453 16.1328 16.8985 15.6632L12.5456 11.5337ZM12.8893 11.2893C13.0122 11.2343 13.141 11.2052 13.269 11.2005L13.4891 17.1965C14.125 17.1731 14.7528 17.0283 15.3368 16.7674L12.8893 11.2893ZM13.269 11.2005C13.3969 11.1958 13.5265 11.2154 13.6512 11.2604L11.6164 16.9048C12.2171 17.1214 12.8533 17.2198 13.4891 17.1965L13.269 11.2005ZM13.6512 11.2604C13.776 11.3054 13.8973 11.3763 14.0056 11.4743L9.97949 15.923C10.4583 16.3563 11.0155 16.6882 11.6164 16.9048L13.6512 11.2604ZM13.9755 11.4474L8.29128 6.44076L4.32547 10.9432L10.0097 15.9499L13.9755 11.4474ZM8.29174 6.44117C8.40028 6.53681 8.49475 6.65799 8.56424 6.80126L3.16565 9.41951C3.44859 10.0029 3.84442 10.5194 4.325 10.9428L8.29174 6.44117ZM8.56424 6.80126C8.63387 6.94483 8.67553 7.10488 8.6832 7.2716L2.68954 7.54739C2.71955 8.19944 2.88257 8.83583 3.16565 9.41951L8.56424 6.80126ZM8.6832 7.2716C8.69088 7.43837 8.66412 7.60297 8.6069 7.75471L2.99284 5.63754C2.76343 6.24587 2.65954 6.89529 2.68954 7.54739L8.6832 7.2716ZM8.6069 7.75471C8.54977 7.90619 8.4649 8.03814 8.36281 8.14557L4.01347 4.01238C3.5709 4.4781 3.22216 5.02947 2.99284 5.63754L8.6069 7.75471ZM46.6372 8.14557C46.5351 8.03815 46.4502 7.90621 46.3931 7.75471L52.0072 5.63754C51.7778 5.02945 51.4291 4.47808 50.9865 4.01238L46.6372 8.14557ZM46.3931 7.75471C46.3359 7.60297 46.3091 7.43837 46.3168 7.2716L52.3105 7.54739C52.3405 6.89529 52.2366 6.24587 52.0072 5.63754L46.3931 7.75471ZM46.3168 7.2716C46.3245 7.10488 46.3661 6.94483 46.4358 6.80126L51.8344 9.41951C52.1174 8.83583 52.2805 8.19944 52.3105 7.54739L46.3168 7.2716ZM46.4358 6.80126C46.5052 6.65799 46.5997 6.53681 46.7083 6.44117L50.675 10.9428C51.1556 10.5194 51.5514 10.0029 51.8344 9.41951L46.4358 6.80126ZM46.7087 6.44076L41.0245 11.4474L44.9903 15.9499L50.6745 10.9432L46.7087 6.44076ZM41.0547 11.4212C41.271 11.2357 41.5329 11.1551 41.7822 11.1675L41.4843 17.1601C42.7411 17.2226 43.9903 16.8077 44.9602 15.9761L41.0547 11.4212ZM41.7822 11.1675C42.0318 11.1799 42.2902 11.2869 42.4924 11.5002L38.1396 15.6296C39.0225 16.5603 40.2273 17.0976 41.4843 17.1601L41.7822 11.1675ZM42.4924 11.5002C42.6983 11.7172 42.8259 12.0269 42.8125 12.3656L36.8172 12.1285C36.7654 13.4386 37.2531 14.6952 38.1396 15.6296L42.4924 11.5002ZM42.8125 12.3656C42.7991 12.7037 42.6483 12.998 42.4317 13.1941L38.4055 8.74546C37.4536 9.607 36.869 10.819 36.8172 12.1285L42.8125 12.3656ZM42.4015 13.221L48.0857 8.21436L44.1199 3.71187L38.4357 8.71852L42.4015 13.221ZM48.0878 8.21252C47.9795 8.30805 47.8588 8.37693 47.7348 8.42037L45.7517 2.75756C45.1538 2.96693 44.5979 3.29008 44.1178 3.71371L48.0878 8.21252ZM47.7348 8.42037C47.6109 8.46376 47.4824 8.48228 47.3555 8.47686L47.6116 2.48233C46.981 2.45539 46.3494 2.54824 45.7517 2.75756L47.7348 8.42037ZM47.3555 8.47686C47.2285 8.47144 47.1008 8.44195 46.979 8.38707L49.4428 2.91627C48.8642 2.65571 48.2422 2.50927 47.6116 2.48233L47.3555 8.47686ZM46.979 8.38707C46.8569 8.33212 46.7401 8.25129 46.6383 8.144L50.9906 4.01395C50.5486 3.54815 50.0215 3.17692 49.4428 2.91627L46.979 8.38707ZM27.5 13.0233C25.6934 13.0233 23.902 13.366 22.2273 14.0345L24.4516 19.607C25.4149 19.2225 26.4511 19.0233 27.5 19.0233L27.5 13.0233ZM22.2273 14.0345C20.5524 14.703 19.0235 15.6857 17.7306 16.9316L21.8939 21.2521C22.6202 20.5522 23.4883 19.9915 24.4516 19.607L22.2273 14.0345ZM17.7306 16.9316C16.4375 18.1777 15.4055 19.6631 14.6993 21.306L20.2117 23.6754C20.5982 22.7762 21.1679 21.9517 21.8939 21.2521L17.7306 16.9316ZM14.6993 21.306C13.993 22.9492 13.6279 24.7145 13.6279 26.5H19.6279C19.6279 25.5339 19.8252 24.5745 20.2117 23.6754L14.6993 21.306ZM13.6279 26.5C13.6279 28.2855 13.993 30.0508 14.6993 31.694L20.2117 29.3246C19.8252 28.4255 19.6279 27.4661 19.6279 26.5H13.6279ZM14.6993 31.694C15.4055 33.3369 16.4375 34.8223 17.7306 36.0684L21.8939 31.7479C21.1679 31.0483 20.5982 30.2238 20.2117 29.3246L14.6993 31.694ZM17.7306 36.0684C19.0235 37.3143 20.5524 38.297 22.2273 38.9655L24.4516 33.393C23.4883 33.0085 22.6202 32.4478 21.8939 31.7479L17.7306 36.0684ZM22.2273 38.9655C23.902 39.634 25.6934 39.9767 27.5 39.9767L27.5 33.9767C26.4511 33.9767 25.4149 33.7775 24.4516 33.393L22.2273 38.9655ZM27.5 39.9767C31.144 39.9767 34.6601 38.5829 37.2694 36.0684L33.1061 31.7479C31.6376 33.163 29.6229 33.9767 27.5 33.9767L27.5 39.9767ZM37.2694 36.0684C39.8825 33.5503 41.3721 30.1109 41.3721 26.5L35.3721 26.5C35.3721 28.4463 34.5708 30.3365 33.1061 31.7479L37.2694 36.0684ZM41.3721 26.5C41.3721 22.8891 39.8825 19.4497 37.2694 16.9316L33.1061 21.2521C34.5708 22.6635 35.3721 24.5537 35.3721 26.5L41.3721 26.5ZM37.2694 16.9316C34.6601 14.4171 31.144 13.0233 27.5 13.0233L27.5 19.0233C29.6229 19.0233 31.6376 19.837 33.1061 21.2521L37.2694 16.9316ZM15.7907 26.5C15.7907 23.573 16.9963 20.7423 19.1806 18.6374L15.0173 14.3169C11.6845 17.5285 9.7907 21.9084 9.7907 26.5H15.7907ZM19.1806 18.6374C21.3687 16.5289 24.3594 15.3256 27.5 15.3256L27.5 9.32558C22.8383 9.32558 18.3462 11.109 15.0173 14.3169L19.1806 18.6374ZM27.5 15.3256C30.6406 15.3256 33.6313 16.5289 35.8194 18.6374L39.9827 14.3169C36.6538 11.109 32.1617 9.32558 27.5 9.32558V15.3256ZM35.8194 18.6374C38.0037 20.7423 39.2093 23.573 39.2093 26.5L45.2093 26.5C45.2093 21.9085 43.3155 17.5285 39.9827 14.3169L35.8194 18.6374ZM39.2093 26.5C39.2093 29.427 38.0037 32.2577 35.8194 34.3626L39.9827 38.6831C43.3155 35.4715 45.2093 31.0915 45.2093 26.5L39.2093 26.5ZM35.8194 34.3626C33.6313 36.4711 30.6406 37.6744 27.5 37.6744L27.5 43.6744C32.1617 43.6744 36.6538 41.891 39.9827 38.6831L35.8194 34.3626ZM27.5 37.6744C24.3594 37.6744 21.3687 36.4711 19.1806 34.3626L15.0173 38.6831C18.3462 41.891 22.8383 43.6744 27.5 43.6744L27.5 37.6744ZM19.1806 34.3626C16.9963 32.2577 15.7907 29.427 15.7907 26.5L9.7907 26.5C9.7907 31.0915 11.6845 35.4715 15.0173 38.6831L19.1806 34.3626ZM3 26.5C3 26.8419 2.85801 27.1463 2.64363 27.3529L-1.51973 23.0324C-2.45374 23.9325 -3 25.1774 -3 26.5H3ZM2.64363 27.3529C2.43302 27.5559 2.1703 27.6512 1.9186 27.6512V21.6512C0.649223 21.6512 -0.589511 22.136 -1.51973 23.0324L2.64363 27.3529ZM1.9186 27.6512H7.03488V21.6512H1.9186V27.6512ZM7.03488 27.6512C6.78319 27.6512 6.52047 27.5559 6.30986 27.3529L10.4732 23.0324C9.543 22.136 8.30427 21.6512 7.03488 21.6512V27.6512ZM6.30986 27.3529C6.09548 27.1463 5.95349 26.8419 5.95349 26.5L11.9535 26.5C11.9535 25.1774 11.4072 23.9325 10.4732 23.0324L6.30986 27.3529ZM5.95349 26.5C5.95349 26.1581 6.09548 25.8537 6.30986 25.6471L10.4732 29.9676C11.4072 29.0675 11.9535 27.8226 11.9535 26.5L5.95349 26.5ZM6.30986 25.6471C6.52047 25.4441 6.78319 25.3488 7.03488 25.3488V31.3488C8.30427 31.3488 9.543 30.864 10.4732 29.9676L6.30986 25.6471ZM7.03488 25.3488H1.9186V31.3488H7.03488V25.3488ZM1.9186 25.3488C2.1703 25.3488 2.43302 25.4441 2.64363 25.6471L-1.51973 29.9676C-0.589511 30.864 0.649223 31.3488 1.9186 31.3488V25.3488ZM2.64363 25.6471C2.85801 25.8537 3 26.1581 3 26.5H-3C-3 27.8226 -2.45374 29.0675 -1.51973 29.9676L2.64363 25.6471ZM49.0465 26.5C49.0465 26.8419 48.9045 27.1463 48.6901 27.3529L44.5268 23.0324C43.5928 23.9325 43.0465 25.1774 43.0465 26.5H49.0465ZM48.6901 27.3529C48.4795 27.5559 48.2168 27.6512 47.9651 27.6512V21.6512C46.6957 21.6512 45.457 22.136 44.5268 23.0324L48.6901 27.3529ZM47.9651 27.6512H53.0814V21.6512H47.9651V27.6512ZM53.0814 27.6512C52.8297 27.6512 52.567 27.5559 52.3564 27.3529L56.5197 23.0324C55.5895 22.136 54.3508 21.6512 53.0814 21.6512V27.6512ZM52.3564 27.3529C52.142 27.1463 52 26.8419 52 26.5H58C58 25.1774 57.4537 23.9325 56.5197 23.0324L52.3564 27.3529ZM52 26.5C52 26.1581 52.142 25.8537 52.3564 25.6471L56.5197 29.9676C57.4537 29.0675 58 27.8226 58 26.5H52ZM52.3564 25.6471C52.567 25.4441 52.8297 25.3488 53.0814 25.3488V31.3488C54.3508 31.3488 55.5895 30.864 56.5197 29.9676L52.3564 25.6471ZM53.0814 25.3488H47.9651V31.3488H53.0814V25.3488ZM47.9651 25.3488C48.2168 25.3488 48.4795 25.4441 48.6901 25.6471L44.5268 29.9676C45.457 30.864 46.6957 31.3488 47.9651 31.3488V25.3488ZM48.6901 25.6471C48.9045 25.8537 49.0465 26.1581 49.0465 26.5H43.0465C43.0465 27.8226 43.5928 29.0675 44.5268 29.9676L48.6901 25.6471ZM42.4375 41.0487C42.227 41.2514 41.9645 41.3465 41.713 41.3465V35.3465C40.4447 35.3465 39.2069 35.8306 38.2769 36.7257L42.4375 41.0487ZM41.713 41.3465C41.4615 41.3465 41.199 41.2514 40.9885 41.0487L45.1492 36.7257C44.2192 35.8306 42.9814 35.3465 41.713 35.3465V41.3465ZM40.9867 41.047L46.6709 46.5269L50.8352 42.2074L45.151 36.7274L40.9867 41.047ZM46.5964 46.4526C46.3921 46.2413 46.262 45.9391 46.2682 45.6053L52.2672 45.7151C52.2908 44.4233 51.7917 43.194 50.9097 42.2818L46.5964 46.4526ZM46.2682 45.6053C46.2743 45.2717 46.415 44.9764 46.6243 44.7746L50.7877 49.0951C51.7001 48.2159 52.2435 47.0066 52.2672 45.7151L46.2682 45.6053ZM46.6243 44.7746C46.8302 44.5762 47.086 44.4807 47.3322 44.4765L47.4342 50.4757C48.6745 50.4546 49.8788 49.971 50.7877 49.0951L46.6243 44.7746ZM47.3322 44.4765C47.5783 44.4724 47.8352 44.559 48.0457 44.748L44.0371 49.2124C44.975 50.0545 46.194 50.4968 47.4342 50.4757L47.3322 44.4765ZM48.1231 44.82L42.4389 39.3425L38.2755 43.6629L43.9597 49.1404L48.1231 44.82ZM42.4402 39.3438C42.6544 39.5504 42.7961 39.8546 42.7961 40.1962H36.7961C36.7961 41.5177 37.3415 42.7617 38.2742 43.6616L42.4402 39.3438ZM42.7961 40.1962C42.7961 40.5335 42.6575 40.8365 42.4402 41.0461L38.2742 36.7283C37.3383 37.6312 36.7961 38.879 36.7961 40.1962H42.7961ZM12.5644 41.0506C12.4589 40.949 12.369 40.8223 12.3056 40.6748L17.8175 38.3045C17.5611 37.7081 17.1884 37.1737 16.7263 36.7288L12.5644 41.0506ZM12.3056 40.6748C12.242 40.527 12.2077 40.3644 12.2077 40.1974H18.2077C18.2077 39.5446 18.0741 38.901 17.8175 38.3045L12.3056 40.6748ZM12.2077 40.1974C12.2077 40.0304 12.242 39.8679 12.3056 39.72L17.8175 42.0904C18.0741 41.4938 18.2077 40.8502 18.2077 40.1974H12.2077ZM12.3056 39.72C12.3691 39.5725 12.4589 39.4458 12.5644 39.3443L16.7263 43.6661C17.1884 43.2211 17.5611 42.6867 17.8175 42.0904L12.3056 39.72ZM12.5642 39.3445L6.87741 44.8219L11.0398 49.1434L16.7265 43.6659L12.5642 39.3445ZM6.95427 44.7505C7.16476 44.5615 7.42171 44.4748 7.6678 44.479L7.5658 50.4781C8.80599 50.4992 10.025 50.057 10.9629 49.2148L6.95427 44.7505ZM7.6678 44.479C7.914 44.4832 8.16979 44.5787 8.37567 44.7771L4.21231 49.0976C5.12124 49.9735 6.32551 50.4571 7.5658 50.4781L7.6678 44.479ZM8.37567 44.7771C8.585 44.9788 8.72573 45.2741 8.73184 45.6077L2.73285 45.7176C2.75649 47.0091 3.29994 48.2184 4.21231 49.0976L8.37567 44.7771ZM8.73184 45.6077C8.73795 45.9415 8.60788 46.2438 8.40361 46.455L4.09034 42.2842C3.20827 43.1964 2.70919 44.4258 2.73285 45.7176L8.73184 45.6077ZM8.32914 46.5294L14.0133 41.0494L9.849 36.7299L4.16481 42.2099L8.32914 46.5294ZM14.0115 41.0512C13.801 41.2538 13.5385 41.349 13.287 41.349V35.349C12.0186 35.349 10.7808 35.8331 9.85083 36.7281L14.0115 41.0512ZM13.287 41.349C13.0396 41.349 12.7785 41.2566 12.565 41.0512L16.7257 36.7281C15.7927 35.8302 14.5512 35.349 13.287 35.349V41.349ZM27.5 47.3721C27.2483 47.3721 26.9856 47.2768 26.775 47.0738L30.9383 42.7534C30.0081 41.857 28.7694 41.3721 27.5 41.3721V47.3721ZM26.775 47.0738C26.5606 46.8672 26.4186 46.5628 26.4186 46.2209H32.4186C32.4186 44.8983 31.8723 43.6534 30.9383 42.7534L26.775 47.0738ZM26.4186 46.2209V51.1512H32.4186V46.2209H26.4186ZM26.4186 51.1512C26.4186 50.8092 26.5606 50.5048 26.775 50.2983L30.9383 54.6187C31.8723 53.7187 32.4186 52.4738 32.4186 51.1512H26.4186ZM26.775 50.2983C26.9856 50.0953 27.2483 50 27.5 50V56C28.7694 56 30.0081 55.5151 30.9383 54.6187L26.775 50.2983ZM27.5 50C27.7517 50 28.0144 50.0953 28.225 50.2983L24.0617 54.6187C24.9919 55.5151 26.2306 56 27.5 56V50ZM28.225 50.2983C28.4394 50.5048 28.5814 50.8092 28.5814 51.1512H22.5814C22.5814 52.4738 23.1277 53.7187 24.0617 54.6187L28.225 50.2983ZM28.5814 51.1512V46.2209H22.5814V51.1512H28.5814ZM28.5814 46.2209C28.5814 46.5628 28.4394 46.8672 28.225 47.0738L24.0617 42.7534C23.1277 43.6534 22.5814 44.8983 22.5814 46.2209H28.5814ZM28.225 47.0738C28.0144 47.2768 27.7517 47.3721 27.5 47.3721V41.3721C26.2306 41.3721 24.9919 41.857 24.0617 42.7534L28.225 47.0738Z" fill="#1D4739" mask="url(#path-1-inside-1_7_156)"/>
</svg>
