<svg width="43" height="65" viewBox="0 0 43 65" fill="none" xmlns="http://www.w3.org/2000/svg">
<path d="M41 43.2315H2M41 43.2315C41 38.5239 39.3769 34.2007 36.667 30.8056M41 43.2315C41 48.2042 39.1889 52.7481 36.1988 56.2222M21.5 63V37.0185M21.5 63C15.6356 63 10.3759 60.3756 6.80119 56.2222M21.5 63C27.3644 63 32.6241 60.3756 36.1988 56.2222M21.5 63C4.11714 45.8296 14.2571 29.4877 21.5 23.463M21.5 63C38.8829 44.9259 28.7429 29.1111 21.5 23.463M2 43.2315C2 38.5239 3.62313 34.2007 6.333 30.8056M2 43.2315C2 48.2042 3.81115 52.7481 6.80119 56.2222M21.5 23.463C15.3741 23.463 9.90789 26.3266 6.333 30.8056M21.5 23.463V37.0185M21.5 23.463C27.6259 23.463 33.0921 26.3266 36.667 30.8056M21.5 23.463C21.4153 22.6044 21.4079 21.2367 21.6362 19.7886M6.333 30.8056C8.78867 32.8765 15.26 37.0185 21.5 37.0185M21.5 37.0185C27.2943 37.0185 34.0256 32.8765 36.667 30.8056M6.80119 56.2222C12.0286 51.5154 25.2264 44.9259 36.1988 56.2222M21.6362 19.7886L17.9913 14.9032M21.6362 19.7886C21.9085 18.0614 23.1181 15.1452 24.3303 13.9163M17.9913 14.9032L13.7446 11.0922M17.9913 14.9032C16.9471 15.797 14.1903 17.0483 11.516 14.9032C8.84173 12.7581 8.54459 8.45642 8.7303 6.57371C11.5614 6.76198 16.2572 6.71621 17.9913 9.39778C18.7217 10.5274 19.8732 12.7867 17.9913 14.9032ZM24.3303 13.9163C23.2161 11.657 22.1018 6.5737 26.5589 4.31445C31.016 2.05519 35.8446 1.86692 37.7018 2.05519C37.8875 3.9379 37.4789 8.71997 34.3589 12.7866C30.4589 17.87 24.5833 14.4811 24.3303 13.9163ZM24.3303 13.9163C26.5589 11.657 30.8303 8.07988 32.6874 6.57371" stroke="#1D4739" stroke-width="3" stroke-linecap="round"/>
</svg>
