<svg width="24" height="40" viewBox="0 0 24 40" fill="none" xmlns="http://www.w3.org/2000/svg">
<path d="M7.36529 17.9583C6.6639 18.7299 5.47154 22.3771 5.47154 22.3771C5.47154 22.3771 5.05072 25.3229 5.47154 25.9541C5.89237 26.5854 9.0907 26.4591 10.1007 25.9541C11.1107 25.4491 13.0465 24.0604 13.8882 23.4291M13.0465 11.6458C11.8542 11.5757 9.89029 12.9083 9.89029 14.5916C9.89029 17.7758 8.83821 21.1146 18.0965 17.1167M2.5258 39C1.96469 37.5271 1.81036 33.1504 3.15703 30.7938C4.84035 27.8479 10.5216 15.0126 16.8341 12.698M22.0944 1.12505C20.2708 2.94866 15.1928 8.40541 8.62779 10.5937C0.421563 13.3291 -0.630518 25.7437 2.94656 29.1104C6.52363 32.477 14.0986 32.2666 16.4132 29.1104C18.7278 25.9541 20.2007 25.5333 21.4632 14.5916C22.0944 5.75419 22.5153 0.0729715 22.0944 1.12505Z" stroke="#433B33" stroke-width="2" stroke-linecap="round"/>
</svg>
