<svg width="34" height="32" viewBox="0 0 34 32" fill="none" xmlns="http://www.w3.org/2000/svg">
<path d="M1.29771 2.58801C1.29771 2.58801 0.627858 8.79653 1.29771 9.68346C1.96757 10.5704 3.084 10.5704 3.084 10.5704M1.29771 2.58801C1.29771 1.25762 13.1318 1.0359 16.4811 1.00118C19.8304 0.966468 32.1111 1.70108 32.1111 2.58801M1.29771 2.58801C1.16051 4.06305 32.1111 5.10913 32.1111 2.58801M3.084 10.5704C4.27485 16.6311 5.54016 27.9002 7.99628 29.6394C10.4524 31.3786 21.84 31.3786 24.0728 30.0482C25.8591 28.9839 28.9851 14.7486 30.1015 10.5704M3.084 10.5704H30.1015M30.1015 10.5704C30.1015 10.5704 30.7714 10.5704 31.218 9.68346C31.6646 8.79653 32.1111 3.29755 32.1111 2.58801" stroke="#433B33" stroke-width="2"/>
</svg>
