<svg width="146" height="28" viewBox="0 0 146 28" fill="none" xmlns="http://www.w3.org/2000/svg">
<path d="M14.7274 21.0229L6.13645 27.2275L9.52282 17.1365L0.90918 10.9093H11.4546L14.7274 0.818359L18.0001 10.9093H28.5455L19.9319 17.1365L23.3183 27.2275L14.7274 21.0229Z" fill="#C7B199" fill-opacity="0.5"/>
<path d="M44.0361 21.0229L35.4452 27.2275L38.8316 17.1365L30.2179 10.9093H40.7634L44.0361 0.818359L47.3088 10.9093H57.8543L49.2407 17.1365L52.627 27.2275L44.0361 21.0229Z" fill="#C7B199" fill-opacity="0.5"/>
<path d="M73.3449 21.0229L64.754 27.2275L68.1403 17.1365L59.5267 10.9093H70.0721L73.3449 0.818359L76.6176 10.9093H87.163L78.5494 17.1365L81.9358 27.2275L73.3449 21.0229Z" fill="#C7B199" fill-opacity="0.5"/>
<path d="M102.654 21.0229L94.0627 27.2275L97.4491 17.1365L88.8354 10.9093H99.3809L102.654 0.818359L105.926 10.9093H116.472L107.858 17.1365L111.245 27.2275L102.654 21.0229Z" fill="#C7B199" fill-opacity="0.5"/>
<path d="M131.962 21.0229L123.371 27.2275L126.758 17.1365L118.144 10.9093H128.69L131.962 0.818359L135.235 10.9093H145.781L137.167 17.1365L140.553 27.2275L131.962 21.0229Z" fill="#C7B199" fill-opacity="0.5"/>
</svg>
