<svg width="65" height="63" viewBox="0 0 65 63" fill="none" xmlns="http://www.w3.org/2000/svg">
<path d="M52.8125 25.5938H60.9375V29.5312H52.8125V25.5938ZM46.7188 14.9349L52.4631 9.36731L55.3353 12.1511L49.5909 17.7188L46.7188 14.9349ZM46.7188 40.1901L49.5909 37.4062L55.3353 42.9739L52.4631 45.7577L46.7188 40.1901ZM34.5313 3.9375H38.5938V11.8125H34.5313V3.9375ZM36.5625 15.75C35.8815 15.7543 35.2021 15.8136 34.5313 15.9272V19.9671C35.1932 19.7902 35.8759 19.6962 36.5625 19.6875C38.7174 19.6875 40.784 20.5172 42.3078 21.994C43.8315 23.4709 44.6875 25.4739 44.6875 27.5625C44.6875 29.6511 43.8315 31.6541 42.3078 33.131C40.784 34.6078 38.7174 35.4375 36.5625 35.4375V39.375C39.7948 39.375 42.8948 38.1305 45.1804 35.9152C47.466 33.6999 48.75 30.6954 48.75 27.5625C48.75 24.4296 47.466 21.4251 45.1804 19.2098C42.8948 16.9945 39.7948 15.75 36.5625 15.75ZM20.3125 39.7373V13.7812H16.25V39.7373C14.8947 40.2017 13.7525 41.1155 13.0251 42.3173C12.2978 43.519 12.0322 44.9313 12.2753 46.3045C12.5184 47.6777 13.2545 48.9234 14.3535 49.8214C15.4526 50.7194 16.8438 51.212 18.2813 51.212C19.7188 51.212 21.11 50.7194 22.209 49.8214C23.3081 48.9234 24.0442 47.6777 24.2873 46.3045C24.5303 44.9313 24.2647 43.519 23.5374 42.3173C22.81 41.1155 21.6678 40.2017 20.3125 39.7373Z" fill="#1D4739"/>
<path d="M18.2813 59.0625C15.4822 59.0656 12.7445 58.267 10.4121 56.7671C8.0797 55.2671 6.2565 53.1327 5.17144 50.6319C4.08639 48.131 3.78787 45.3752 4.31335 42.7104C4.83884 40.0457 6.16491 37.5908 8.12506 35.6541V13.7812C8.12506 11.1705 9.19509 8.66673 11.0998 6.82067C13.0044 4.97461 15.5877 3.9375 18.2813 3.9375C20.9749 3.9375 23.5582 4.97461 25.4629 6.82067C27.3675 8.66673 28.4376 11.1705 28.4376 13.7812V35.6541C30.3977 37.5908 31.7238 40.0457 32.2493 42.7104C32.7747 45.3752 32.4762 48.131 31.3912 50.6319C30.3061 53.1327 28.4829 55.2671 26.1505 56.7671C23.8181 58.267 21.0804 59.0656 18.2813 59.0625ZM18.2813 7.875C16.6656 7.87656 15.1166 8.49933 13.9742 9.60663C12.8317 10.7139 12.1892 12.2153 12.1876 13.7812V37.3728L11.5132 37.9614C9.97934 39.2902 8.89798 41.0391 8.41224 42.9766C7.92649 44.9141 8.05926 46.9489 8.79297 48.8117C9.52668 50.6745 10.8267 52.2774 12.5211 53.4083C14.2154 54.5391 16.2241 55.1446 18.2813 55.1446C20.3385 55.1446 22.3472 54.5391 24.0415 53.4083C25.7359 52.2774 27.0359 50.6745 27.7696 48.8117C28.5034 46.9489 28.6361 44.9141 28.1504 42.9766C27.6646 41.0391 26.5833 39.2902 25.0494 37.9614L24.3751 37.3728V13.7812C24.3734 12.2153 23.7309 10.7139 22.5885 9.60663C21.446 8.49933 19.897 7.87656 18.2813 7.875Z" fill="#1D4739"/>
</svg>
