<svg width="45" height="45" viewBox="0 0 45 45" fill="none" xmlns="http://www.w3.org/2000/svg">
<path d="M33.8732 30.4064C33.8732 30.4064 29.454 23.3571 24.2149 23.3571C18.9758 23.3571 15.0648 28.3924 15.0648 28.3924C15.0648 28.3924 4.38977 39.4699 9.47312 43.4981C14.383 47.3889 20.1482 42.4911 24.2149 42.4911C28.2816 42.4911 33.3649 46.5193 37.4316 43.4981C41.4983 40.477 33.8732 30.4064 33.8732 30.4064Z" fill="#1D4739"/>
<path d="M43.9475 23.4264C42.1409 27.3104 38.6352 29.5276 36.1172 28.3784C33.5992 27.2293 33.0225 23.1491 34.8291 19.265C36.6357 15.381 40.1414 13.1639 42.6594 14.313C45.1774 15.4621 45.7541 19.5423 43.9475 23.4264Z" fill="#1D4739"/>
<path d="M1.0525 22.97C2.85908 26.8541 6.36483 29.0712 8.8828 27.9221C11.4008 26.773 11.9775 22.6928 10.1709 18.8087C8.36432 14.9247 4.85858 12.7075 2.3406 13.8567C-0.177377 15.0058 -0.754079 19.086 1.0525 22.97Z" fill="#1D4739"/>
<path d="M8.85985 9.44461C8.84123 14.6013 11.5883 18.7914 14.9955 18.8035C18.4028 18.8156 21.18 14.645 21.1986 9.48833C21.2172 4.33162 18.4702 0.141487 15.063 0.129413C11.6557 0.117339 8.87848 4.28789 8.85985 9.44461Z" fill="#1D4739"/>
<path d="M23.6824 9.01624C23.415 14.1662 25.9567 18.4816 29.3594 18.655C32.7622 18.8283 35.7375 14.794 36.0049 9.64411C36.2724 4.49417 33.7307 0.178768 30.3279 0.00538565C26.9251 -0.167996 23.9498 3.8663 23.6824 9.01624Z" fill="#1D4739"/>
</svg>
