<svg width="39" height="54" viewBox="0 0 39 54" fill="none" xmlns="http://www.w3.org/2000/svg">
<path d="M18.3929 2.51401L17.2496 1.543L17.2489 1.54386L18.3929 2.51401ZM19.5006 2L19.5006 0.5L19.5006 2ZM20.6083 2.51401L21.7525 1.54403L21.7516 1.54301L20.6083 2.51401ZM31.6944 35.3364C31.6944 34.508 31.0229 33.8364 30.1944 33.8364C29.366 33.8364 28.6944 34.508 28.6944 35.3364H31.6944ZM21.4444 42.6583C20.616 42.6583 19.9444 43.3299 19.9444 44.1583C19.9444 44.9867 20.616 45.6583 21.4444 45.6583V42.6583ZM35.5 34.3562C35.5 39.4545 33.9144 43.4578 31.2123 46.1822C28.5115 48.9052 24.547 50.5 19.5 50.5V53.5C25.1924 53.5 29.9779 51.6868 33.3423 48.2948C36.7053 44.9041 38.5 40.0855 38.5 34.3562H35.5ZM19.5 50.5C14.453 50.5 10.4885 48.9052 7.78771 46.1822C5.08558 43.4578 3.5 39.4545 3.5 34.3562H0.5C0.5 40.0855 2.29471 44.9041 5.65773 48.2948C9.02207 51.6868 13.8076 53.5 19.5 53.5V50.5ZM3.5 34.3562C3.5 28.9892 6.43674 22.4689 10.0348 16.5594C13.5946 10.7129 17.6373 5.72425 19.5369 3.48416L17.2489 1.54386C15.3009 3.84093 11.1472 8.96378 7.4724 14.9993C3.83592 20.9718 0.5 28.104 0.5 34.3562H3.5ZM19.5362 3.48501C19.5331 3.48862 19.5285 3.49241 19.5223 3.49532L18.2595 0.774019C17.8708 0.954386 17.5265 1.21699 17.2496 1.54301L19.5362 3.48501ZM19.5223 3.49532C19.516 3.49825 19.5085 3.5 19.5006 3.5L19.5006 0.5C19.0717 0.5 18.6483 0.593633 18.2595 0.774019L19.5223 3.49532ZM19.5006 3.5C19.4927 3.5 19.4853 3.49825 19.4789 3.49532L20.7417 0.774019C20.3529 0.593633 19.9295 0.5 19.5006 0.5L19.5006 3.5ZM19.4789 3.49532C19.4727 3.49241 19.4681 3.48862 19.465 3.48501L21.7516 1.54301C21.4748 1.21699 21.1304 0.954389 20.7417 0.774019L19.4789 3.49532ZM19.4642 3.48398C21.3633 5.72419 25.4057 10.7129 28.9653 16.5594C32.5633 22.4689 35.5 28.9892 35.5 34.3562H38.5C38.5 28.104 35.1641 20.9718 31.5278 14.9993C27.8531 8.96381 23.6997 3.84098 21.7525 1.54403L19.4642 3.48398ZM28.6944 35.3364C28.6944 37.2822 27.9276 39.1459 26.5666 40.5181L28.6966 42.6307C30.6175 40.6941 31.6944 38.07 31.6944 35.3364H28.6944ZM26.5666 40.5181C25.206 41.8899 23.3633 42.6583 21.4444 42.6583V45.6583C24.1669 45.6583 26.7753 44.5678 28.6966 42.6307L26.5666 40.5181Z" fill="#1D4739"/>
</svg>
